<svg xmlns="http://www.w3.org/2000/svg" width="199.602" height="266.141" viewBox="0 0 199.602 266.141"><defs></defs><path class="a" d="M187.13,266.141H12.468A12.437,12.437,0,0,1,0,253.669V12.476A12.437,12.437,0,0,1,12.468,0H116.431V70.694A12.519,12.519,0,0,0,128.912,83.17H199.6v170.5a12.442,12.442,0,0,1-12.472,12.472Zm-87.593-79.25a11.907,11.907,0,0,0-7.551,2.769,13.1,13.1,0,0,0-4.36,7.089,11.866,11.866,0,0,0,.913,7.821,12.938,12.938,0,0,0,5.655,5.809c.5.261,1,.553,1.48.836.228.134.46.271.689.4h6.46c.233-.134.466-.272.692-.406.479-.283.973-.576,1.472-.837a12.933,12.933,0,0,0,5.652-5.822,11.749,11.749,0,0,0,.873-7.807,13.1,13.1,0,0,0-4.312-7.05,11.849,11.849,0,0,0-7.472-2.8Zm-.135-93.2A20.565,20.565,0,0,0,89.676,96.2a12.5,12.5,0,0,0-5.824,5.793c-1.064,2.363-1.347,5.224-.891,9,2.045,16.946,4.067,34.178,6.023,50.843l.342,2.913a10.907,10.907,0,0,0,3.273,6.623,10.087,10.087,0,0,0,6.647,2.809c.084,0,.173,0,.29,0a9.835,9.835,0,0,0,6.447-2.463,10.029,10.029,0,0,0,3.368-6.26c.94-7.22,1.806-14.573,2.644-21.683.576-4.885,1.171-9.936,1.785-14.9.548-4.44,1.176-8.944,1.783-13.3.273-1.962.556-3.991.83-6v-5.887a20.049,20.049,0,0,0-7.321-7.414A19.344,19.344,0,0,0,99.4,93.689ZM199.6,66.535H133.067V0h3.124a12.531,12.531,0,0,1,4.786.941,12.289,12.289,0,0,1,4.048,2.7l50.944,50.943a12.431,12.431,0,0,1,3.633,8.784v3.17Z" transform="translate(0)"/></svg>